<svg width="93" height="61" viewBox="0 0 93 61" fill="none" xmlns="http://www.w3.org/2000/svg">
<path fill-rule="evenodd" clip-rule="evenodd" d="M12.167 7.48301V12.333H7.31699C5.38754 12.333 3.53712 13.0995 2.17279 14.4638C0.808463 15.8281 0.0419922 17.6786 0.0419922 19.608V53.558C0.0419922 55.4875 0.808463 57.3379 2.17279 58.7022C3.53712 60.0665 5.38754 60.833 7.31699 60.833H73.6003C74.5557 60.833 75.5017 60.6448 76.3843 60.2792C77.267 59.9136 78.069 59.3778 78.7445 58.7022C79.4201 58.0267 79.9559 57.2247 80.3216 56.342C80.6872 55.4594 80.8753 54.5134 80.8753 53.558V48.708H85.7253C89.7347 48.708 93.0003 45.4423 93.0003 41.433V7.48301C93.0003 3.47368 89.7347 0.208008 85.7253 0.208008H19.442C15.4327 0.208008 12.167 3.47368 12.167 7.48301ZM20.2503 8.29134V12.333H73.6003C74.5557 12.333 75.5017 12.5212 76.3843 12.8868C77.267 13.2524 78.069 13.7883 78.7445 14.4638C79.4201 15.1394 79.9559 15.9413 80.3216 16.824C80.6872 17.7066 80.8753 18.6526 80.8753 19.608V40.6247H84.917V8.29134H20.2503ZM32.3753 36.583C32.3753 34.4392 33.227 32.3831 34.7429 30.8672C36.2588 29.3513 38.3148 28.4997 40.4587 28.4997C42.6025 28.4997 44.6585 29.3513 46.1744 30.8672C47.6904 32.3831 48.542 34.4392 48.542 36.583C48.542 38.7268 47.6904 40.7829 46.1744 42.2988C44.6585 43.8147 42.6025 44.6663 40.4587 44.6663C38.3148 44.6663 36.2588 43.8147 34.7429 42.2988C33.227 40.7829 32.3753 38.7268 32.3753 36.583Z" fill="#00AFB5"/>
</svg>
