<svg width="348" height="233" viewBox="0 0 348 233" fill="none" xmlns="http://www.w3.org/2000/svg">
<g filter="url(#filter0_d_719_7)">
<path fill-rule="evenodd" clip-rule="evenodd" d="M49.6666 27.4335V45.3335H31.7666C24.6456 45.3335 17.8162 48.1623 12.7808 53.1977C7.74546 58.233 4.91663 65.0624 4.91663 72.1835V197.484C4.91663 204.605 7.74546 211.434 12.7808 216.469C17.8162 221.505 24.6456 224.334 31.7666 224.334H276.4C279.926 224.334 283.417 223.639 286.675 222.29C289.933 220.94 292.893 218.963 295.386 216.469C297.879 213.976 299.857 211.016 301.206 207.759C302.555 204.501 303.25 201.01 303.25 197.484V179.583H321.15C335.947 179.583 348 167.531 348 152.733V27.4335C348 12.6362 335.947 0.583496 321.15 0.583496H76.5166C61.7193 0.583496 49.6666 12.6362 49.6666 27.4335ZM79.5 30.4168V45.3335H276.4C279.926 45.3335 283.417 46.028 286.675 47.3773C289.933 48.7267 292.893 50.7044 295.386 53.1977C297.879 55.6909 299.857 58.6509 301.206 61.9084C302.555 65.166 303.25 68.6575 303.25 72.1835V149.75H318.167V30.4168H79.5ZM124.25 134.833C124.25 126.921 127.393 119.333 132.988 113.738C138.583 108.143 146.171 105 154.083 105C161.996 105 169.584 108.143 175.179 113.738C180.773 119.333 183.917 126.921 183.917 134.833C183.917 142.746 180.773 150.334 175.179 155.929C169.584 161.524 161.996 164.667 154.083 164.667C146.171 164.667 138.583 161.524 132.988 155.929C127.393 150.334 124.25 142.746 124.25 134.833Z" fill="#00AFB5"/>
</g>
<defs>
<filter id="filter0_d_719_7" x="0.916626" y="0.583496" width="351.083" height="231.75" filterUnits="userSpaceOnUse" color-interpolation-filters="sRGB">
<feFlood flood-opacity="0" result="BackgroundImageFix"/>
<feColorMatrix in="SourceAlpha" type="matrix" values="0 0 0 0 0 0 0 0 0 0 0 0 0 0 0 0 0 0 127 0" result="hardAlpha"/>
<feOffset dy="4"/>
<feGaussianBlur stdDeviation="2"/>
<feComposite in2="hardAlpha" operator="out"/>
<feColorMatrix type="matrix" values="0 0 0 0 0 0 0 0 0 0 0 0 0 0 0 0 0 0 0.25 0"/>
<feBlend mode="normal" in2="BackgroundImageFix" result="effect1_dropShadow_719_7"/>
<feBlend mode="normal" in="SourceGraphic" in2="effect1_dropShadow_719_7" result="shape"/>
</filter>
</defs>
</svg>
