<svg width="149" height="149" viewBox="0 0 149 149" fill="none" xmlns="http://www.w3.org/2000/svg">
<path d="M100.109 74.5C95.7872 74.5 91.642 76.217 88.5857 79.2732C85.5295 82.3295 83.8125 86.4747 83.8125 90.7969C83.8125 95.1191 85.5295 99.2643 88.5857 102.321C91.642 105.377 95.7872 107.094 100.109 107.094H130.375V130.375H18.625V51.2188H130.375V74.5H100.109ZM104.766 97.7812H100.109C98.257 97.7812 96.4805 97.0454 95.1707 95.7356C93.8609 94.4257 93.125 92.6492 93.125 90.7969C93.125 88.9445 93.8609 87.168 95.1707 85.8582C96.4805 84.5484 98.257 83.8125 100.109 83.8125H104.766C106.618 83.8125 108.394 84.5484 109.704 85.8582C111.014 87.168 111.75 88.9445 111.75 90.7969C111.75 92.6492 111.014 94.4257 109.704 95.7356C108.394 97.0454 106.618 97.7812 104.766 97.7812ZM93.125 18.625L111.75 41.9062H55.875L93.125 18.625Z" fill="#00AFB5"/>
</svg>
