<svg width="187" height="187" viewBox="0 0 187 187" fill="none" xmlns="http://www.w3.org/2000/svg">
<path d="M125.641 93.5C120.216 93.5 115.014 95.6549 111.178 99.4906C107.342 103.326 105.188 108.529 105.188 113.953C105.187 119.378 107.342 124.58 111.178 128.416C115.014 132.251 120.216 134.406 125.641 134.406H163.625V163.625H23.375V64.2812H163.625V93.5H125.641ZM131.484 122.719H125.641C123.316 122.719 121.086 121.795 119.442 120.151C117.799 118.507 116.875 116.278 116.875 113.953C116.875 111.628 117.799 109.399 119.442 107.755C121.086 106.111 123.316 105.188 125.641 105.188H131.484C133.809 105.188 136.039 106.111 137.683 107.755C139.326 109.399 140.25 111.628 140.25 113.953C140.25 116.278 139.326 118.507 137.683 120.151C136.039 121.795 133.809 122.719 131.484 122.719ZM116.875 23.375L140.25 52.5938H70.125L116.875 23.375Z" fill="#00AFB5"/>
</svg>
